<svg xmlns="http://www.w3.org/2000/svg" data-name="Layer 2" viewBox="0 0 230.34 74.88"><defs><linearGradient id="a" x1="0" x2="230.34" y1="27.66" y2="27.66" gradientUnits="userSpaceOnUse"><stop offset="0" stop-color="#fff"/><stop offset="1" stop-color="#ae4e80"/></linearGradient></defs><g data-name="Layer 1"><path d="M42.02 33.63h-14v21.59H11.69V33.63H0v-13.6h11.69v-.47c0-6.31 1.86-11.13 5.59-14.46 3.73-3.34 9.08-5 16.07-5 1.41 0 2.94.09 4.58.25q2.475.255 4.08.75v13.5c-1.28-.27-2.4-.45-3.37-.55s-2-.15-3.07-.15c-2.49 0-4.37.49-5.64 1.46-1.28.97-1.91 2.47-1.91 4.48v.17h14v13.6ZM58.9 14.61c2.59-.67 4.92-1.01 7-1.01 3.36 0 5.89.65 7.61 1.96 1.63 1.24 2.48 3.11 2.56 5.59h9.29L89.3 9.02c-.88-1.39-1.97-2.63-3.25-3.74-4.1-3.53-9.84-5.29-17.23-5.29-4.1 0-8.18.49-12.24 1.46-4.06.98-8.28 2.44-12.65 4.38l5.85 11.99c3.49-1.48 6.53-2.55 9.12-3.22Zm22.23 19.55-5.62 17.3c-1.98 1.28-4.06 2.22-6.24 2.8-2.38.64-5.02.96-7.91.96-3.76 0-7.1-.7-10.03-2.12-2.92-1.41-5.21-3.36-6.85-5.84-1.65-2.48-2.47-5.34-2.47-8.57 0-5.1 1.93-9.05 5.79-11.84s9.25-4.18 16.17-4.18c.45 0 .9 0 1.35.02l15.79 11.47Zm-5.06 7.05v-6.85c-1.55-.4-3.12-.7-4.73-.91-1.61-.2-3.26-.3-4.94-.3-2.82 0-5 .45-6.55 1.36s-2.32 2.2-2.32 3.88.74 2.99 2.22 3.93q2.22 1.41 6.15 1.41 2.925 0 5.49-.6c2.565-.6 3.27-1.04 4.68-1.91Zm0 14.01h32.45L92.2 42.21 76.08 55.22Zm49.68 0h16.32v-25.6l-16.32 1.91zm33.56-27.62v27.62h16.32V25.69zm13.65-17.32c-1.78-3.22-4.22-5.74-7.31-7.56C162.56.91 159 0 154.97 0c-3.49 0-6.72.64-9.67 1.91a22.2 22.2 0 0 0-7.66 5.44 18.34 18.34 0 0 0-6.75-5.44C128.2.63 125.18 0 121.82 0c-5.11 0-9.54 1.48-13.3 4.43V0H92.2v.1l6.84 21.05h9.48v-3.32c1.01-1.27 2.23-2.23 3.68-2.87q2.16-.96 4.89-.96c2.62 0 4.72.87 6.3 2.62 1.1 1.22 1.81 2.73 2.15 4.53h16.54c0-.5-.02-.98-.05-1.46-.04-.57-.09-1.12-.15-1.66 1.07-1.34 2.35-2.35 3.83-3.02s3.12-1.01 4.94-1.01c2.62 0 4.72.87 6.3 2.62 1.1 1.22 1.82 2.73 2.15 4.53h16.54c-.04-4.1-.93-7.73-2.67-10.88Zm-64.44 40.06V33.55l-5.25.62zm121.82-21.12c0-5.64-1.16-10.65-3.48-15.01-2.32-4.37-5.49-7.81-9.52-10.33S208.67.1 203.44.1s-9.88 1.23-14.11 3.68-7.57 5.76-10.03 9.93a26 26 0 0 0-2.96 7.45h15.94c.52-1.51 1.24-2.8 2.14-3.87 1.04-1.24 2.3-2.2 3.78-2.87s3.12-1.01 4.94-1.01 3.36.35 4.84 1.06c1.48.7 2.77 1.68 3.88 2.92.96 1.07 1.7 2.33 2.23 3.77 0 0 0 .02.01.03l-5.84.68-32.56 3.81c-.05.67-.07 1.34-.07 2.03 0 5.17 1.28 9.84 3.83 14.01 2.55 4.16 6.03 7.47 10.43 9.93 4.4 2.45 9.32 3.68 14.76 3.68 4.43 0 8.41-.64 11.94-1.91s6.97-3.32 10.33-6.15l-10.78-9.57c-1.28 1.28-2.82 2.27-4.63 2.97s-3.83 1.06-6.05 1.06c-2.01 0-3.9-.35-5.64-1.06-1.75-.71-3.24-1.7-4.48-2.97a14.5 14.5 0 0 1-2.97-4.43h37.99v-4.03Z" style="fill:url(#a)"/><path d="M41.26 74.88c-.53 0-1.02-.1-1.49-.29-.46-.19-.87-.46-1.21-.8q-.525-.51-.81-1.2c-.19-.46-.29-.95-.29-1.48s.1-1.02.29-1.48q.285-.69.81-1.2a3.8 3.8 0 0 1 2.7-1.09 4.15 4.15 0 0 1 2.11.57c.31.18.58.4.81.67l-.63.65a2.7 2.7 0 0 0-1.02-.75c-.4-.17-.83-.26-1.27-.26-.4 0-.78.07-1.13.22s-.65.35-.91.62c-.26.26-.46.57-.6.92s-.21.73-.21 1.15.07.79.21 1.14.34.66.6.92.57.47.92.62.73.22 1.14.22c.44 0 .86-.09 1.25-.26s.73-.42 1-.73l.62.63c-.24.26-.52.48-.82.66-.31.18-.63.33-.99.42-.35.1-.71.15-1.09.15Zm6.14-.12v-7.3h5.3v.82h-4.36v2.39h2.86v.8h-2.86v2.46h4.4v.82H47.4Zm8.57 0v-7.3h.94v6.47h4.29v.83h-5.22Zm8.42 0v-7.3h5.3v.82h-4.36v2.39h2.86v.8h-2.86v2.46h4.4v.82h-5.34Zm8.57 0v-7.3h3.06c.48 0 .89.08 1.24.23q.525.24.81.66c.19.29.29.62.29 1s-.1.69-.29.96-.45.49-.79.64c.42.14.75.36 1 .66s.37.66.37 1.07-.1.78-.31 1.09q-.315.465-.87.72c-.38.17-.81.26-1.31.26h-3.19Zm.94-4.16h2.06c.44 0 .8-.1 1.06-.31s.4-.49.4-.86-.13-.65-.4-.86c-.26-.21-.62-.31-1.06-.31H73.9zm0 3.36h2.18c.49 0 .89-.12 1.18-.35.29-.24.44-.55.44-.94s-.15-.71-.44-.94-.68-.35-1.18-.35H73.9v2.59Zm8.07.8v-7.3h3.21c.49 0 .91.09 1.27.27s.64.42.84.74.3.69.3 1.12c0 .48-.14.89-.42 1.24-.28.34-.65.59-1.12.74l1.64 3.2h-1.04l-1.53-3.08h-2.21v3.08h-.94Zm.94-3.86h2.21c.47 0 .84-.12 1.12-.35q.42-.36.42-.96c0-.6-.14-.7-.42-.94s-.65-.35-1.12-.35h-2.21v2.61Zm7.95 3.86v-7.3h.94v7.3zm6.59 0v-6.47h-2.61v-.83h6.15v.83h-2.61v6.47h-.94Zm6.58 0v-7.3h.94v7.3zm4.58 0v-7.3h5.3v.82h-4.36v2.39h2.86v.8h-2.86v2.46h4.4v.82h-5.34Zm10.99.11a4.2 4.2 0 0 1-3.09-1.33l.59-.66c.38.4.78.69 1.2.89.42.19.86.29 1.33.29.37 0 .69-.06.97-.17s.5-.27.66-.47.24-.44.24-.69c0-.35-.12-.63-.37-.81q-.375-.285-1.23-.42l-1.13-.19c-.69-.12-1.2-.33-1.53-.64s-.5-.72-.5-1.23q0-.615.33-1.08c.33-.465.52-.55.92-.72s.85-.26 1.37-.26 1.03.09 1.54.26.96.41 1.37.72l-.53.72c-.79-.6-1.6-.91-2.42-.91-.33 0-.63.05-.88.15s-.45.24-.58.42q-.21.27-.21.63c0 .32.11.56.32.74.22.17.57.29 1.07.37l1.11.18c.79.13 1.36.36 1.72.68s.54.76.54 1.33c0 .44-.12.82-.36 1.16-.24.33-.57.59-1 .78s-.92.28-1.49.28Zm12.7 0a4.2 4.2 0 0 1-3.09-1.33l.59-.66c.38.4.78.69 1.2.89.42.19.86.29 1.33.29.37 0 .69-.06.97-.17s.5-.27.66-.47.24-.44.24-.69c0-.35-.12-.63-.37-.81q-.375-.285-1.23-.42l-1.13-.19c-.69-.12-1.2-.33-1.53-.64s-.5-.72-.5-1.23q0-.615.33-1.08c.33-.465.52-.55.92-.72s.85-.26 1.37-.26 1.03.09 1.54.26.96.41 1.37.72l-.53.72c-.79-.6-1.6-.91-2.42-.91-.33 0-.63.05-.88.15s-.45.24-.58.42q-.21.27-.21.63c0 .32.11.56.32.74.22.17.57.29 1.07.37l1.11.18c.79.13 1.36.36 1.72.68s.54.76.54 1.33c0 .44-.12.82-.36 1.16-.24.33-.57.59-1 .78s-.92.28-1.49.28Zm5.99-.11v-7.3h5.3v.82h-4.36v2.39h2.86v.8h-2.86v2.46h4.4v.82h-5.34Zm8.57 0v-7.3h3.21c.49 0 .91.09 1.27.27s.64.42.84.74.3.69.3 1.12c0 .48-.14.89-.42 1.24-.28.34-.65.59-1.12.74l1.64 3.2h-1.04l-1.53-3.08h-2.21v3.08h-.94Zm.94-3.86h2.21c.47 0 .84-.12 1.12-.35q.42-.36.42-.96c0-.6-.14-.7-.42-.94s-.65-.35-1.12-.35h-2.21v2.61Zm10.03 3.86-2.98-7.3h1.01l2.55 6.39 2.61-6.39h.96l-3.03 7.3zm7.03 0v-7.3h.94v7.3zm8.05.12c-.53 0-1.02-.1-1.49-.29-.46-.19-.87-.46-1.21-.8q-.525-.51-.81-1.2c-.19-.46-.29-.95-.29-1.48s.1-1.02.29-1.48q.285-.69.81-1.2a3.8 3.8 0 0 1 2.7-1.09 4.15 4.15 0 0 1 2.11.57c.31.18.58.4.81.67l-.63.65a2.7 2.7 0 0 0-1.02-.75c-.4-.17-.83-.26-1.27-.26-.4 0-.78.07-1.13.22s-.65.35-.91.62c-.26.26-.46.57-.6.92s-.21.73-.21 1.15.07.79.21 1.14.34.66.6.92.57.47.92.62.73.22 1.14.22c.44 0 .86-.09 1.25-.26s.73-.42 1-.73l.62.63c-.24.26-.52.48-.82.66-.31.18-.63.33-.99.42-.35.1-.71.15-1.09.15Zm6.13-.12v-7.3h5.3v.82h-4.36v2.39h2.86v.8h-2.86v2.46h4.4v.82h-5.34Zm10.99.11a4.2 4.2 0 0 1-3.09-1.33l.59-.66c.38.4.78.69 1.2.89.42.19.86.29 1.33.29.37 0 .69-.06.97-.17s.5-.27.66-.47.24-.44.24-.69c0-.35-.12-.63-.37-.81q-.375-.285-1.23-.42l-1.13-.19c-.69-.12-1.2-.33-1.53-.64s-.5-.72-.5-1.23q0-.615.33-1.08c.33-.465.52-.55.92-.72s.85-.26 1.37-.26 1.03.09 1.54.26.96.41 1.37.72l-.53.72c-.79-.6-1.6-.91-2.42-.91-.33 0-.63.05-.88.15s-.45.24-.58.42q-.21.27-.21.63c0 .32.11.56.32.74.22.17.57.29 1.07.37l1.11.18c.79.13 1.36.36 1.72.68s.54.76.54 1.33c0 .44-.12.82-.36 1.16-.24.33-.57.59-1 .78s-.92.28-1.49.28Z" style="fill:#ae4e80"/></g></svg>