<?xml version="1.0" encoding="UTF-8"?>
<svg id="Layer_2" data-name="Layer 2" xmlns="http://www.w3.org/2000/svg" xmlns:xlink="http://www.w3.org/1999/xlink" viewBox="0 0 266.16 282.69">
  <defs>
    <style>
      .cls-1 {
        fill: url(#radial-gradient);
      }

      .cls-2 {
        font-size: 13px;
      }

      .cls-2, .cls-3 {
        fill: #fff;
        font-family: BahijTheSansArabic-Plain, 'Bahij TheSansArabic';
      }

      .cls-3 {
        font-size: 30.54px;
      }

      .cls-4 {
        fill: url(#linear-gradient);
      }
    </style>
    <radialGradient id="radial-gradient" cx="-367.92" cy="7.5" fx="-367.92" fy="7.5" r="298.54" gradientTransform="translate(-108.84) rotate(-180) scale(1 -1)" gradientUnits="userSpaceOnUse">
      <stop offset="0" stop-color="#fff"/>
      <stop offset="1" stop-color="#ae4e80"/>
    </radialGradient>
    <linearGradient id="linear-gradient" x1="-202.29" y1="53.93" x2="-142.75" y2="53.93" gradientTransform="translate(-108.84) rotate(-180) scale(1 -1)" gradientUnits="userSpaceOnUse">
      <stop offset="0" stop-color="#ae4e80"/>
      <stop offset="1" stop-color="#262053"/>
    </linearGradient>
  </defs>
  <g id="Layer_1-2" data-name="Layer 1">
    <g>
      <path class="cls-1" d="M36.8,282.39l205.02-23.74c13.58-1.57,24.34-13.46,24.34-26.58V50.62c0-13.13-10.75-25.01-24.34-26.58L36.8.3C16.74-2.02,0,9.47,0,26.05v230.6c0,16.57,16.74,28.07,36.8,25.75Z"/>
      <text class="cls-3" transform="translate(128.93 119.74)"><tspan x="0" y="0">استدامة</tspan></text>
      <text class="cls-2" transform="translate(33.77 153.24)"><tspan x="0" y="0">معلومات عن النقطة هنا معلومات عن </tspan><tspan x="10.23" y="17">النقطة هنا معلومات عن النقطة هنا </tspan><tspan x="0" y="34.01">معلومات عن النقطة هنا معلومات عن </tspan><tspan x="12.77" y="51.02">النقطة هنا معلومات عن النقطة هنا</tspan></text>
      <path class="cls-4" d="M66.12,24.16c14.14.92,26.34,13.18,27.3,27.3.11,1.62-.08,3.36,0,5-.2.84-.24,1.72-.39,2.58-.12.68-.34,2.34-.9,2.7-.68.44-1.43-.18-1.38-.91.04-.67.43-1.75.54-2.49,4.17-26.96-28.26-43.26-47.72-23.9-.55.54-1.3,1.88-2.14,1.8-.62-.06-2.06-1.79-2.74-2.09v9.53s9.41-1.63,9.41-1.63c-.48-.65-2.32-1.68-2.61-2.32-.24-.53.15-1,.46-1.39,5.31-6.73,15.53-9.31,23.65-7.26,13.7,3.47,21.33,18.65,15.92,31.78,1.7-.12,4.05-1.46,4.94.69.08,3.63.12,7.29-.02,10.91-.33.93-1.2,1.36-2.16,1.15-.69-.14-2.1-1.79-2.44-1.7-.2.05-1.72,1.72-2.06,2.02-9.46,8.5-23.3,10.27-34.51,4.07-.67-.37-3.99-2.39-4.16-2.93-.21-.69.27-1.42,1.03-1.27,2.21,1.5,4.36,2.94,6.85,3.96,9.76,3.98,20.86,2.21,28.87-4.59,1.31-1.11,2.37-2.43,3.66-3.55.89-.27,2.31,1.7,3.14,2.04v-9.53s-9.41,1.63-9.41,1.63c.66.96,3.2,1.92,2.52,3.27-.22.44-2.04,2.18-2.52,2.6-7.54,6.71-18.9,7.75-27.57,2.59-10-5.94-14.26-18.4-9.84-29.26-1.52.11-3.43,1.23-4.65-.12-3.18,9.62-1.1,19.59,5.28,27.31.35.42,1.66,1.61,1.7,2.03.08.83-.68,1.33-1.4.92s-2.67-2.93-3.24-3.73c-5.95-8.25-7.15-18.52-3.71-28.07.22-.62.93-1.85,1.01-2.36.32-2.06-.2-4.92,0-7.08.11-1.15.97-1.84,2.13-1.65.81.13,1.82,1.32,2.47,1.83,4.52-4.92,10.48-8.34,17.12-9.49l2.69-.39h4.88ZM47.65,39.21c1.01,1.06,2.82,1.71,2.23,3.51-.51,1.55-4.13,1.4-5.52,1.8-.52.15-.79,1.06-.99,1.57-2.71,6.79-1.52,14.71,2.72,20.58,8.03,11.12,24.38,12.02,33.62,1.93-.7-.74-2.21-1.48-2.32-2.56-.09-.9.29-1.67,1.16-1.97,1.3-.45,3.19-.45,4.56-.78.36-.13.72-1.18.87-1.57,5.34-13.54-4.35-28.55-18.77-29.51-6.66-.44-13.07,2.13-17.57,7ZM62.75,57.62l-5.28-5.12c-1.02-.48-1.81.71-1.06,1.52l6.27,6.27.07,10.39c.17,1.06,1.72,1.04,1.86-.22.17-1.57-.14-3.45,0-5.05,3.78-.26,7.59-1.45,9.54-4.92,3.4-6.05-.79-13.68-4.39-18.66-.99-1.37-4.26-5.61-5.82-5.91-.74-.15-1.7.62-2.24,1.08-3.4,2.88-7.8,9.89-9.09,14.15-1.76,5.78-.08,11.77,6.13,13.57.61.18,1.7.63,2.15.03,1.08-1.43-1.66-1.75-2.44-2.06-10.37-4.15-1-19.21,4.18-24.05.26-.24.86-.81,1.17-.71.43.14,2.49,2.43,2.9,2.92,3.15,3.76,7.24,10.28,6.86,15.33-.38,5.04-4.29,7.17-8.95,7.38v-3.2c1.83-2.12,4.41-4.03,6.16-6.16.89-1.08.38-2.1-.98-1.67l-5.18,5.1v-6.68c1.01-1.24,2.73-2.42,3.66-3.66.28-.37.36-.43.2-.9-.7-2.08-3.08,1.5-3.86,1.94v-6.68c0-.22-.6-.74-.88-.75s-.98.36-.98.64v6.8c-.72-.4-2.01-2.29-2.67-2.5-.92-.3-1.68.61-1.05,1.4l3.72,3.72v6.68Z"/>
    </g>
  </g>
</svg>