<?xml version="1.0" encoding="UTF-8"?>
<svg id="Layer_2" data-name="Layer 2" xmlns="http://www.w3.org/2000/svg" xmlns:xlink="http://www.w3.org/1999/xlink" viewBox="0 0 266.16 282.69">
  <defs>
    <style>
      .cls-1 {
        fill: url(#radial-gradient);
      }

      .cls-2 {
        font-size: 13px;
      }

      .cls-2, .cls-3 {
        fill: #fff;
        font-family: BahijTheSansArabic-Plain, 'Bahij TheSansArabic';
      }

      .cls-3 {
        font-size: 30.54px;
      }

      .cls-4 {
        fill: url(#linear-gradient);
      }
    </style>
    <radialGradient id="radial-gradient" cx="7.07" cy="7.5" fx="7.07" fy="7.5" r="298.54" gradientUnits="userSpaceOnUse">
      <stop offset="0" stop-color="#fff"/>
      <stop offset="1" stop-color="#ae4e80"/>
    </radialGradient>
    <linearGradient id="linear-gradient" x1="178.16" y1="58.8" x2="233.35" y2="58.8" gradientUnits="userSpaceOnUse">
      <stop offset="0" stop-color="#ae4e80"/>
      <stop offset="1" stop-color="#262053"/>
    </linearGradient>
  </defs>
  <g id="Layer_1-2" data-name="Layer 1">
    <g>
      <path class="cls-1" d="M229.35,282.39l-205.02-23.74c-13.58-1.57-24.34-13.46-24.34-26.58V50.62c0-13.13,10.75-25.01,24.34-26.58L229.35.3c20.06-2.32,36.8,9.17,36.8,25.75v230.6c0,16.57-16.74,28.07-36.8,25.75Z"/>
      <text class="cls-3" transform="translate(161.07 119.74)"><tspan x="0" y="0">بيانات</tspan></text>
      <text class="cls-2" transform="translate(31.44 153.24)"><tspan x="0" y="0">معلومات عن النقطة هنا معلومات عن </tspan><tspan x="10.23" y="17">النقطة هنا معلومات عن النقطة هنا </tspan><tspan x="0" y="34.01">معلومات عن النقطة هنا معلومات عن </tspan><tspan x="12.77" y="51.02">النقطة هنا معلومات عن النقطة هنا</tspan></text>
      <path class="cls-4" d="M223.28,49.75l2.49-4.18c2.92-3.51,9.47.71,7.04,4.84l-9.5,16.48-.03,19c-.1.91-.96,1.8-1.91,1.8h-41.42c-1.28-.25-1.71-1.17-1.8-2.38v-53.14c.09-.99.45-1.82,1.43-2.17,11.89-.21,23.83-.04,35.75-.08.4.1.73.31,1.05.57,1.45,1.15,5.11,4.81,6.26,6.27.16.2.64.9.64,1.1v11.89ZM214.35,31.78h-33.93s-.18.15-.29.12v53.82c.11-.04.25.12.29.12h40.71s.17-.16.17-.17v-15.25l-2.34,3.98-.52.52-5.81,3.36c-.77.13-1.25-.33-1.31-1.07-.2-2.13.07-4.72.12-6.86l9.87-17.05v-14.44h-5.63c-.38,0-1.33-.86-1.33-1.22v-5.86ZM219.92,36.88l-3.6-3.6v3.6h3.6ZM230.12,51.26c.6-1.47,2.22-2.84.46-4.22-2.44-1.91-3.51-.28-4.51,1.95l4.05,2.27ZM228.96,52.9l-3.94-2.16-11.31,19.67,4.01,2.32,11.25-19.83ZM213.31,72.49v3.13l2.78-1.51c.1-.13-2.53-1.54-2.78-1.62ZM193.8,64.17c7.02-.41,12.32,6.35,10.31,13.1-2.31,7.76-12.43,9.74-17.59,3.51-5.3-6.39-.91-16.13,7.28-16.61ZM193.68,66.14c-5.95.52-9.38,7.02-6.42,12.26,2.79,4.95,9.72,5.55,13.4,1.22,4.71-5.55.23-14.11-6.99-13.48ZM185.18,50.57h18.45c1.31-.15,1.14-1.91-.12-1.98l-18.42.03c-1.21.22-1.16,1.8.09,1.95ZM185.18,61.47h15.2c1.32-.16,1.17-1.94-.12-1.97l-15.29.02c-1.1.39-.98,1.81.2,1.95ZM196.23,55.99l14.82.03c1.25-.15,1.15-1.83-.12-1.98h-14.39c-.85.07-1.31,1.06-.71,1.71.09.1.27.17.4.24ZM194.34,39.67h14.16c1.28-.15,1.25-1.81-.12-1.98l-14.13.03c-1.14.28-1.15,1.8.09,1.95ZM201.41,45.12c4.33.41,9.3-.32,13.7,0,1.24-.14,1.19-1.81-.23-1.97-4.13-.47-9.12.35-13.34,0-.9,0-1.48,1-.83,1.7.18.2.46.25.71.28ZM196.43,43.14c-3.53.29-7.68-.39-11.14,0-1.36.15-1.46,1.61-.24,1.98,3.69-.28,7.86.35,11.5,0,.25-.02.53-.08.71-.28.64-.7.07-1.7-.83-1.7ZM185.07,56.01c2.13.34,5.08-.23,7.29,0,1.18-.28,1.07-1.79-.12-1.95-1.15-.16-6.06-.18-7.15.02-1.19.21-1.13,1.76-.02,1.94ZM210.93,59.5c-1.16-.13-4.55-.14-5.68.01-1.24.17-1.24,1.78-.12,1.95.92.14,5.1.14,6.02,0,.79-.12,1.03-1.2.49-1.7-.16-.14-.5-.25-.71-.27ZM207.94,50.54l5.77.02c1.07-.17,1.06-1.72-.02-1.94-.67-.13-4.96-.13-5.63,0-1.03.21-1.08,1.59-.12,1.92ZM185.06,39.67c.92.11,4.22.13,5.1-.01,1.09-.17,1.08-1.78-.12-1.96-.85-.13-3.99-.12-4.85,0-.86.12-1.32,1.04-.73,1.69.13.14.4.25.6.27ZM192.67,75.69c-.22.06-1.58-1.57-1.92-1.81-.98-.68-2.04.19-1.54,1.19.11.21,2.51,2.65,2.76,2.81.32.2.67.26,1.03.12,1.76-1.6,3.63-3.11,5.34-4.75.2-.19,1.16-1.09,1.21-1.22.37-.87-.36-1.64-1.25-1.37l-5.64,5.03Z"/>
    </g>
  </g>
</svg>