<?xml version="1.0" encoding="UTF-8"?>
<svg id="Layer_2" data-name="Layer 2" xmlns="http://www.w3.org/2000/svg" xmlns:xlink="http://www.w3.org/1999/xlink" viewBox="0 0 266.16 282.69">
  <defs>
    <style>
      .cls-1 {
        fill: url(#radial-gradient);
      }

      .cls-2 {
        font-size: 13px;
      }

      .cls-2, .cls-3 {
        fill: #fff;
        font-family: BahijTheSansArabic-Plain, 'Bahij TheSansArabic';
      }

      .cls-3 {
        font-size: 30.54px;
      }

      .cls-4 {
        fill: url(#linear-gradient);
      }
    </style>
    <radialGradient id="radial-gradient" cx="7.07" cy="7.5" fx="7.07" fy="7.5" r="298.54" gradientUnits="userSpaceOnUse">
      <stop offset="0" stop-color="#fff"/>
      <stop offset="1" stop-color="#ae4e80"/>
    </radialGradient>
    <linearGradient id="linear-gradient" x1="171.84" y1="59.67" x2="228.9" y2="59.67" gradientUnits="userSpaceOnUse">
      <stop offset="0" stop-color="#ae4e80"/>
      <stop offset="1" stop-color="#262053"/>
    </linearGradient>
  </defs>
  <g id="Layer_1-2" data-name="Layer 1">
    <g>
      <path class="cls-1" d="M229.35,282.39l-205.02-23.74c-13.58-1.57-24.34-13.46-24.34-26.58V50.62c0-13.13,10.75-25.01,24.34-26.58L229.35.3c20.06-2.32,36.8,9.17,36.8,25.75v230.6c0,16.57-16.74,28.07-36.8,25.75Z"/>
      <text class="cls-3" transform="translate(127.17 119.74)"><tspan x="0" y="0">منظومة</tspan></text>
      <text class="cls-2" transform="translate(31.44 153.24)"><tspan x="0" y="0">معلومات عن النقطة هنا معلومات عن </tspan><tspan x="10.23" y="17">النقطة هنا معلومات عن النقطة هنا </tspan><tspan x="0" y="34.01">معلومات عن النقطة هنا معلومات عن </tspan><tspan x="12.77" y="51.02">النقطة هنا معلومات عن النقطة هنا</tspan></text>
      <path class="cls-4" d="M207.04,89.43c-1.9-.83-1.1-3.09-1.29-4.75-2.07-.51-4.02-1.33-5.83-2.44-1.47,1.07-2.53,3.77-4.6,2.14-.59-.47-2.79-2.63-3.18-3.2-1.4-2.05,1.36-3.09,2.24-4.56-1.16-1.74-1.87-3.71-2.42-5.72-1.77-.29-4.54.74-4.77-1.85-.08-.92-.11-4.44.21-5.14.13-.29.64-.63.32-1.09-.08-.11-2.17-.73-2.58-.9-.63-.27-1.23-.64-1.84-.95-1.2.71-2.05,2.91-3.72,1.74-.29-.2-2.91-2.85-2.99-3.05-.7-1.72,1.19-2.27,1.78-3.28.23-.39-.48-1.29-.69-1.76-.41-.93-.8-1.93-.95-2.94-1.38-.09-3.72.5-3.94-1.46-.08-.7-.1-3.54.05-4.13.4-1.55,2.7-1.09,3.89-1.16.3-1.57.95-3.15,1.84-4.47-1.02-1.24-3.04-2.15-1.61-3.95.4-.51,2.01-2.14,2.5-2.49,1.8-1.29,2.54.82,3.83,1.62,1.43-.7,2.86-1.5,4.47-1.74.06-1.24-.39-3.67,1.35-3.94.75-.12,3.15-.1,3.94,0,2.02.23,1.34,2.53,1.46,3.94,1.57.23,3.03.93,4.38,1.73.41.06,1.56-1.5,2.11-1.79.46-.24,1.01-.3,1.49-.08.22.1,2.84,2.69,3.05,2.99,1.17,1.67-1.04,2.52-1.74,3.72.31.61.68,1.21.95,1.84.18.41.79,2.5.9,2.58.45.32.8-.19,1.09-.32.69-.32,4.22-.3,5.14-.21,2.59.23,1.56,3.01,1.85,4.77,2,.56,3.98,1.26,5.72,2.42,1.59-.97,2.5-3.74,4.67-2.12.68.51,2.55,2.39,3.09,3.07,1.64,2.07-1.07,3.13-2.14,4.6.81,1.35,1.5,2.75,1.99,4.25.09.28.31,1.4.37,1.49.26.38,3.41-.31,4.32.61.2.21.27.58.5.77v5.34c-.17.5-.92,1.28-1.45,1.28h-3.31c-.46,2.09-1.34,4.03-2.41,5.87.88,1.24,3.28,2.32,2.46,4.12-.14.32-3.2,3.44-3.6,3.72-1.86,1.31-3.13-1.36-4.41-2.29-1.84,1.07-3.77,1.96-5.87,2.41v3.31c0,.54-.78,1.28-1.28,1.45h-5.34ZM192.76,31.72h-3.14v2.26c0,.44-.43,1.16-.82,1.38-.59.34-2.07.59-2.89.94-.87.37-2.07,1.34-2.96,1.21-.91-.13-1.65-1.57-2.45-1.97-.18,0-2.15,1.97-2.15,2.15.39.79,1.84,1.54,1.97,2.45.13.88-.84,2.09-1.21,2.96s-.56,2.13-.9,2.82c-.09.18-.69.78-.84.78h-2.84v3.25h2.73s.51.28.58.35c.57.49.84,2.22,1.16,3.02.37.92,1.44,2.27,1.32,3.18s-2.08,2.07-1.95,2.54c.09.34,1.8,1.68,2.08,2.12h.12c.69-.55,1.52-1.88,2.41-2.01s1.71.67,2.5,1.04c.97.45,2.65.74,3.37,1.16.82.48.65,1.48.78,1.6.09.08,2.26.05,2.37-.1.12-.16.72-2.38.93-2.9.41-.99.94-1.89,1.43-2.83-.03-.15-2.05-2.17-2.19-2.23-.08-.03-1.22.07-1.55.05-4.36-.36-7-4.6-5.73-8.72.25-.81.58-1.77,1.63-1.46,1.06.31.05,1.79-.1,2.41-.7,2.9,1.4,5.87,4.41,6.05,1.04.06.76.03,1.34-.53,1.12-1.08,2.23-2.19,3.31-3.31.55-.57.6-.3.52-1.33-.18-2.44-2.22-4.51-4.71-4.59-.93-.03-2.81.96-3.02-.34-.11-.63.48-.96.99-1.11,3.94-1.17,8.07,1.61,8.46,5.71.03.36-.08,1.58-.05,1.67.06.14,2.07,2.16,2.23,2.19,1.82-1.07,3.75-1.88,5.8-2.41.02-.33.14-2.36.05-2.45-.03-.03-.68.03-.94-.05-.88-.27-1.13-2.25-1.45-3.08-.29-.77-1.39-2.42-1.44-2.98-.11-1.22,1.41-2.03,2.08-2.89-.44-.29-1.83-2.05-2.17-2.14-.48-.13-1.62,1.84-2.54,1.95s-2.26-.95-3.18-1.32c-.8-.32-2.53-.59-3.02-1.16-.06-.07-.35-.55-.35-.58v-2.73ZM211.92,46.12h-4.24s-.17.16-.17.17v3.48s-.35.56-.42.63c-.45.46-3.11,1.08-3.99,1.47-1.13.49-2.45,1.67-3.64,1.42-.8-.17-2.59-2.58-2.91-2.52-.73.91-2.24,1.92-2.87,2.83-.08.12-.14.12-.06.29.3.59,1.81,1.58,2.25,2.28.26.42.33.88.25,1.37-.07.42-1.17,2.11-1.44,2.74-.39.89-1.01,3.55-1.47,3.99-.07.07-.59.42-.63.42h-3.48s-.17.16-.17.17v4.24h3.54s.55.32.64.4c.65.57,1.04,2.79,1.45,3.77.47,1.13,1.77,2.72,1.54,3.87-.17.8-2.58,2.59-2.52,2.91.91.73,1.92,2.24,2.83,2.87.12.08.12.14.29.06.6-.31,1.58-1.84,2.28-2.25.32-.19.77-.29,1.14-.26.56.05,2.45,1.26,3.2,1.57.98.41,2.55.67,3.33,1.08.2.1.85.72.85.89v3.66h4.41v-3.54s.28-.5.35-.58c.52-.66,2.67-1.03,3.6-1.4.97-.38,2.29-1.36,3.05-1.59,1.78-.53,2.74,1.65,3.97,2.58l3.02-3.02v-.12c-.93-1.21-3.06-2.15-2.53-3.92.23-.76,1.21-2.08,1.59-3.05s.74-3.08,1.4-3.6c.08-.06.55-.35.58-.35h3.54v-4.41h-3.66c-.17,0-.79-.65-.89-.85-.41-.78-.67-2.35-1.08-3.33-.15-.37-.33-.77-.5-1.13-.51-1.08-1.58-1.91-.82-3.21.41-.7,1.94-1.68,2.25-2.28.09-.17.03-.17-.06-.29-.63-.91-2.13-1.92-2.87-2.83-.32-.06-2.11,2.35-2.91,2.52-1.15.24-2.74-1.07-3.87-1.54-.92-.38-4.18-.96-4.18-2.09v-3.54ZM199.04,70.21c.22.72.59,1.98,1.62,1.51.93-.42.11-1.73-.06-2.38-2.48-9.86,10.03-16.15,16.43-8.42,6,7.24-1.33,17.93-10.39,14.92-1.62-.54-2.17-1.29-3.43-2.14-1.17-.79-1.98.46-1.26,1.26,4.3,4.75,12.8,3.81,16.59-1.15,5.97-7.82-.1-18.89-9.89-18.02-6.97.62-11.69,7.71-9.61,14.42ZM208.76,60.2c9.82-1.11,10.26,13.57.92,13.51-8.47-.06-8.92-12.6-.92-13.51ZM208.87,61.94c-6.33.86-5.08,11.16,1.8,9.93,6.2-1.11,5.02-10.85-1.8-9.93Z"/>
    </g>
  </g>
</svg>