<?xml version="1.0" encoding="UTF-8"?>
<svg id="Layer_2" data-name="Layer 2" xmlns="http://www.w3.org/2000/svg" xmlns:xlink="http://www.w3.org/1999/xlink" viewBox="0 0 266.16 282.69">
  <defs>
    <style>
      .cls-1 {
        fill: url(#radial-gradient);
      }

      .cls-2 {
        font-size: 13px;
      }

      .cls-2, .cls-3 {
        fill: #fff;
        : BahijTheSansArabic-Plain, 'Bahij TheSansArabic';
      }

      .cls-3 {
        font-size: 30.54px;
      }

      .cls-4 {
        fill: url(#linear-gradient);
      }
    </style>
    <radialGradient id="radial-gradient" cx="7.07" cy="7.5" fx="7.07" fy="7.5" r="298.54" gradientUnits="userSpaceOnUse">
      <stop offset="0" stop-color="#fff"/>
      <stop offset="1" stop-color="#ae4e80"/>
    </radialGradient>
    <linearGradient id="linear-gradient" x1="179.29" y1="56.73" x2="232.24" y2="56.73" gradientUnits="userSpaceOnUse">
      <stop offset="0" stop-color="#ae4e80"/>
      <stop offset="1" stop-color="#262053"/>
    </linearGradient>
  </defs>
  <g id="Layer_1-2" data-name="Layer 1">
    <g>
      <path class="cls-1" d="M229.35,282.39l-205.02-23.74c-13.58-1.57-24.34-13.46-24.34-26.58V50.62c0-13.13,10.75-25.01,24.34-26.58L229.35.3c20.06-2.32,36.8,9.17,36.8,25.75v230.6c0,16.57-16.74,28.07-36.8,25.75Z"/>
      <text class="cls-3" transform="translate(51.24 119.74)"><tspan x="0" y="0">ذكاء اصطناعي</tspan></text>
      <text class="cls-2" transform="translate(31.44 153.24)"><tspan x="0" y="0">معلومات عن النقطة هنا معلومات عن </tspan><tspan x="10.23" y="17">النقطة هنا معلومات عن النقطة هنا </tspan><tspan x="0" y="34.01">معلومات عن النقطة هنا معلومات عن </tspan><tspan x="12.77" y="51.02">النقطة هنا معلومات عن النقطة هنا</tspan></text>
      <path class="cls-4" d="M198.35,40.8c2.57.76,5,1.92,7.47,2.92,2.01-.89,4.03-1.79,6.11-2.52,4.74-1.67,13.95-4.25,18.27-.9,5.55,4.3-1.6,13.1-5.2,16.37-.04.22,1.87,1.95,2.18,2.3,2.4,2.7,5.81,7.5,4.91,11.28-.68,2.83-3.48,4.15-6.17,4.37.1-.77.26-1.49,0-2.25,8.49-1.2,1.65-9.8-1.46-13.06-.28-.3-.92-1.12-1.33-.93-1.91,1.76-4.01,3.29-6.1,4.81-.45,4.11-1.03,8.23-2.22,12.19-1.02,3.39-3,8.38-6.18,10.26-6.85,4.05-11.4-7.37-12.42-12.35-3.58,1.01-7.85,1.82-11.56,1.15-4.92-.89-6.6-4.86-4.41-9.24.49.5,1.12.84,1.77,1.07-.19,1.32-.71,2.32-.29,3.67,1.04,3.31,7.41,2.54,10.01,2.11.42-.07,3.94-.76,3.96-.96-.56-2.59-.91-5.23-1.13-7.88-3.89-2.82-7.77-5.84-10.87-9.54-2.63-3.13-6.63-9.26-2.85-12.93,3.32-3.22,11.34-1.8,15.38-.59.45-1.89,1.02-3.78,1.8-5.56,2.63-6.07,7.61-11.24,13.18-4.31l-1.92,1.1c-1.77-1.92-3.5-3.12-5.83-1.16-2.75,2.31-4.2,7.23-5.1,10.59ZM195.69,42.27c-6.47-1.97-19.06-3.13-12.17,7.46,2.7,4.15,6.94,7.52,10.78,10.56.11-.85.08-1.73.07-2.59-.03-2.37-.05-4.76.13-7.15.21-2.78.7-5.55,1.19-8.29ZM208.55,44.92c-.09.12.07.33.22.38,5.26,2.64,10.05,6.08,14.56,9.83.82-.64,1.69-1.58,2.39-2.39,2.41-2.78,7.51-9.75,1.39-11.47-4.02-1.13-10.22.56-14.12,1.92-.55.19-4.3,1.54-4.44,1.73ZM197.81,70.51c8.65-3.07,16.88-7.61,23.72-13.74.04-.24-1.14-1.16-1.39-1.37-6.45-5.46-14.4-9.61-22.33-12.46-.3,2.01-.72,4.01-.93,6.03-.48,4.62-.54,9.56-.13,14.18.21,2.47.67,4.92,1.06,7.36ZM214.65,64.81l-3.36,2.01c-4.13,2.32-8.43,4.36-12.94,5.82.86,3.27,2.07,7.31,4.37,9.86,3.08,3.42,5.71,1.22,7.58-1.96,2.71-4.62,3.54-10.51,4.35-15.73ZM221.33,76.59c3.96-.54,3.3-6.89-.88-6.45-4.28.45-3.56,7.06.88,6.45ZM185.68,58.71c-3.1-2.22-6.93,2.19-4.13,4.99,3.24,3.24,7.99-2.23,4.13-4.99ZM211.94,38.55c5,1.13,5.45-7.24.02-6.32-3.1.53-3.44,5.54-.02,6.32ZM205.24,57.78h-3.18v3.65s-.47.5-.53.53c-.62.26-1.26.03-1.56-.55.12-2.46-.26-5.25-.03-7.67.12-1.31,1.17-2.22,2.45-2.32,1.9-.15,4.18-.29,4.92,1.85l.03,8.13c-.3.59-.94.82-1.56.55-.06-.03-.53-.49-.53-.53v-3.65ZM202.05,55.66h3.18c.17-2.22-.09-2.27-2.19-2.13-1.5.11-.86.92-.99,2.13ZM209.47,52.27c.29,2.76-.36,6.22,0,8.9.15,1.11,1.78,1.21,2.13.12l-.07-9.34c-.33-.5-.83-.68-1.43-.51-.25.07-.66.54-.63.83Z"/>
    </g>
  </g>
</svg>