<?xml version="1.0" encoding="UTF-8"?>
<svg id="Layer_2" data-name="Layer 2" xmlns="http://www.w3.org/2000/svg" xmlns:xlink="http://www.w3.org/1999/xlink" viewBox="0 0 266.16 282.69">
  <defs>
    <style>
      .cls-1 {
        fill: url(#radial-gradient);
      }

      .cls-2 {
        font-size: 13px;
      }

      .cls-2, .cls-3 {
        fill: #fff;
        font-family: BahijTheSansArabic-Plain, 'Bahij TheSansArabic';
      }

      .cls-3 {
        font-size: 30.54px;
      }

      .cls-4 {
        fill: url(#linear-gradient);
      }
    </style>
    <radialGradient id="radial-gradient" cx="92.31" cy="7.5" fx="92.31" fy="7.5" r="298.54" gradientTransform="translate(351.4) rotate(-180) scale(1 -1)" gradientUnits="userSpaceOnUse">
      <stop offset="0" stop-color="#fff"/>
      <stop offset="1" stop-color="#ae4e80"/>
    </radialGradient>
    <linearGradient id="linear-gradient" x1="259.09" y1="53.93" x2="318.58" y2="53.93" gradientTransform="translate(351.4) rotate(-180) scale(1 -1)" gradientUnits="userSpaceOnUse">
      <stop offset="0" stop-color="#ae4e80"/>
      <stop offset="1" stop-color="#262053"/>
    </linearGradient>
  </defs>
  <g id="Layer_1-2" data-name="Layer 1">
    <g>
      <path class="cls-1" d="M36.8,282.39l205.02-23.74c13.58-1.57,24.34-13.46,24.34-26.58V50.62c0-13.13-10.75-25.01-24.34-26.58L36.8.3C16.74-2.02,0,9.47,0,26.05v230.6c0,16.57,16.74,28.07,36.8,25.75Z"/>
      <text class="cls-3" transform="translate(151.44 119.74)"><tspan x="0" y="0">احتراف</tspan></text>
      <text class="cls-2" transform="translate(33.77 153.24)"><tspan x="0" y="0">معلومات عن النقطة هنا معلومات عن </tspan><tspan x="10.23" y="17">النقطة هنا معلومات عن النقطة هنا </tspan><tspan x="0" y="34.01">معلومات عن النقطة هنا معلومات عن </tspan><tspan x="12.77" y="51.02">النقطة هنا معلومات عن النقطة هنا</tspan></text>
      <path class="cls-4" d="M33.82,75.56c-.66,0-1.32-1.14-.84-1.74l14.14-12.84c-2.02-2.45-3.82-4.93-4.88-7.96-5.94-16.97,10.12-33.37,27.2-27.72,15,4.96,19.66,24.34,8.51,35.55l14.07,12.78c.38.43.41,1.13,0,1.55-.06.06-.61.38-.65.38h-7.26s0,7.39,0,7.39c0,.64-1.52,1.02-1.93.39-4.93-5.21-9.49-10.81-14.45-15.99-.16-.17-.4-.49-.63-.5-3.04.74-6.14.55-9.19.05l-15.22,16.64c-.6.48-1.74-.18-1.74-.84v-7.13s-7.13,0-7.13,0ZM45.07,37.49c-6.91,14.68,6.21,30.72,21.95,27.08,14.64-3.38,19.89-21.87,9.2-32.52-9.44-9.4-25.49-6.58-31.15,5.43ZM76.31,62.48c-2.07,1.41-4.14,2.91-6.59,3.58l12.2,13.61v-5.59c0-.16.67-.83.83-.83h5.46s-11.9-10.77-11.9-10.77ZM42.29,73.24c.33,0,.96.64.96.96v5.33s12.2-13.49,12.2-13.49c-1.79-.47-3.52-1.45-5.05-2.46-.31-.21-1.43-1.18-1.67-1.12l-11.78,10.78h5.33ZM77.27,56.07c-7.6,10.81-24.1,9.98-30.44-1.62-6.72-12.3,2.62-27.38,16.62-26.64,14.01.74,21.96,16.69,13.82,28.26ZM52.31,57.7c8.67,7.47,22.28,3.32,25.37-7.64,2.61-9.26-3.81-19.09-13.46-19.94-15.44-1.36-23.54,17.55-11.9,27.57ZM74.54,51.8c-4.66,9.29-18.04,9.87-23.42.93-5.75-9.57,1.8-21.27,12.84-20.29,9.24.82,14.71,11.11,10.58,19.36ZM53.09,51.66c4.25,6.83,14.08,7.02,18.65.44,4.94-7.1.1-16.86-8.43-17.47-9.02-.64-15.02,9.34-10.23,17.03ZM63.3,39.14c.91.65,5.16,4.92,5.84,5.85.45.6.46.93,0,1.55-.68.92-4.95,5.21-5.84,5.85-.68.49-1.06.35-1.68-.13-1.27-.98-4.35-4.12-5.39-5.39-.68-.83-.75-1.26-.06-2.12,1.02-1.28,3.98-4.22,5.26-5.27.34-.28.78-.66,1.26-.61.23.02.43.16.61.29ZM58.42,45.8l4.17,4.19,4.17-4.17-4.19-4.17-4.15,4.15Z"/>
    </g>
  </g>
</svg>